<?xml version="1.0" standalone="no"?>
<!DOCTYPE svg PUBLIC "-//W3C//DTD SVG 20010904//EN"
 "http://www.w3.org/TR/2001/REC-SVG-20010904/DTD/svg10.dtd">
<svg version="1.0" xmlns="http://www.w3.org/2000/svg"
 width="840.000000pt" height="859.000000pt" viewBox="0 0 840.000000 859.000000"
 preserveAspectRatio="xMidYMid meet">

<g transform="translate(0.000000,859.000000) scale(0.100000,-0.100000)"
fill="#000000" stroke="none">
<path d="M3576 8544 c-457 -82 -1097 -515 -1654 -1118 -772 -834 -1173 -1684
-1017 -2154 44 -130 83 -177 315 -373 l54 -46 -22 -74 c-31 -110 -42 -182 -42
-290 0 -267 90 -485 280 -679 52 -54 124 -116 159 -140 146 -98 326 -166 462
-177 43 -3 81 -9 86 -12 4 -3 34 -58 65 -121 186 -375 511 -724 877 -941 324
-193 669 -310 1071 -365 157 -21 538 -24 695 -6 610 72 1098 288 1479 652 345
330 564 742 631 1185 43 285 -21 474 -180 534 l-48 18 -32 104 c-17 57 -39
121 -48 142 -16 38 -16 38 19 107 127 249 45 511 -206 660 -83 50 -236 110
-367 145 -122 33 -110 -1 -118 315 -6 249 -13 318 -51 465 -30 121 -114 296
-181 379 -27 32 -52 65 -57 72 -7 9 8 31 51 78 113 120 242 304 315 451 69
137 108 293 108 434 0 220 -99 381 -294 476 -204 100 -440 119 -758 60 -177
-32 -336 -81 -531 -162 l-158 -66 -37 34 c-20 19 -104 100 -187 180 -122 119
-164 153 -224 183 -128 65 -281 81 -455 50z m355 -258 c40 -26 309 -293 309
-307 0 -3 -71 -49 -157 -101 -355 -215 -737 -497 -1031 -761 -281 -253 -572
-617 -792 -992 -84 -144 -223 -428 -286 -588 l-59 -147 -40 -10 c-169 -44
-288 -112 -411 -235 l-91 -92 -84 75 c-115 104 -143 140 -165 214 -76 257 72
701 408 1222 524 813 1388 1556 2003 1721 118 32 132 33 251 31 92 -1 105 -4
145 -30z m739 -864 c0 -4 -25 -32 -55 -62 -30 -30 -55 -59 -55 -66 0 -7 31
-14 83 -18 191 -15 527 -119 518 -161 -3 -12 3 -13 -151 15 -179 31 -487 39
-670 16 -375 -47 -764 -186 -1069 -383 -46 -30 -86 -52 -88 -49 -16 16 251
282 409 409 152 121 399 279 414 265 3 -3 -8 -32 -24 -64 -36 -70 -54 -132
-42 -139 5 -3 27 5 48 19 81 51 230 119 341 157 153 51 341 85 341 61z m926
-886 c92 -43 149 -134 180 -291 7 -38 20 -200 29 -360 20 -378 28 -415 95
-450 16 -8 100 -35 187 -61 288 -83 423 -168 458 -288 31 -105 -7 -208 -120
-322 -213 -216 -637 -396 -1085 -460 -170 -24 -391 -34 -540 -23 -312 22 -326
22 -366 9 -137 -45 -226 -185 -226 -355 0 -138 58 -253 167 -331 88 -62 195
-109 322 -142 103 -26 119 -27 348 -27 203 1 259 4 366 23 398 71 746 228 968
438 68 64 123 134 106 134 -4 0 -46 -24 -95 -54 -192 -119 -503 -257 -702
-311 -213 -57 -333 -76 -535 -82 -212 -6 -332 4 -466 41 -167 46 -266 115
-302 209 -10 26 -16 49 -14 51 2 2 54 -9 116 -25 159 -40 370 -63 513 -55 198
10 415 60 408 94 -2 10 -12 16 -23 15 -11 -1 -90 -5 -175 -9 -257 -11 -512 19
-733 87 l-97 30 20 39 c38 74 93 87 277 65 185 -23 538 -16 730 14 383 59 736
188 1008 369 55 37 105 68 111 70 13 3 64 -147 89 -260 16 -73 19 -78 44 -78
46 -1 108 -36 127 -72 47 -90 3 -335 -100 -554 -119 -252 -357 -508 -623 -668
-160 -96 -405 -189 -613 -233 -113 -24 -147 -27 -345 -27 -244 -1 -344 12
-510 66 -472 153 -773 489 -841 938 -53 356 58 743 286 995 27 29 51 62 55 74
10 31 -17 77 -101 171 -118 132 -193 237 -240 336 -61 127 -78 216 -72 379 5
113 9 141 35 211 75 202 236 363 424 425 62 20 92 24 189 23 63 -1 165 -7 225
-14 155 -17 327 -15 400 4 87 23 189 78 275 147 116 93 168 116 265 118 33 0
67 -7 101 -23z m-3373 -1391 c268 -70 442 -326 465 -683 18 -273 -32 -464
-153 -591 -101 -106 -209 -146 -369 -139 -80 4 -118 12 -185 36 -167 62 -313
176 -405 315 -96 147 -134 286 -123 453 21 301 188 520 457 601 90 27 228 30
313 8z"/>
<path d="M5450 5957 c-36 -18 -50 -54 -50 -132 0 -95 23 -197 62 -275 l33 -65
75 0 74 0 9 40 c19 87 -16 289 -66 378 -34 60 -85 80 -137 54z"/>
<path d="M4381 5534 c-76 -20 -165 -70 -206 -116 -68 -75 -40 -92 90 -55 204
58 279 56 449 -9 98 -38 124 -41 132 -19 8 20 -35 82 -81 118 -109 86 -252
117 -384 81z"/>
<path d="M5567 5310 c-74 -58 -47 -210 37 -210 68 0 110 104 72 178 -28 54
-67 65 -109 32z"/>
<path d="M4533 5266 c-81 -26 -143 -79 -143 -121 0 -21 32 -19 110 7 53 17 88
21 187 20 68 0 125 3 128 8 10 17 -9 41 -52 67 -55 32 -163 41 -230 19z"/>
<path d="M5192 5154 c-16 -11 -22 -25 -22 -53 0 -88 135 -147 196 -85 28 27
27 56 -2 102 -31 47 -128 67 -172 36z"/>
<path d="M1940 4893 c-60 -22 -144 -107 -176 -180 -50 -113 -53 -234 -5 -241
32 -5 46 10 71 81 37 103 82 147 161 162 85 16 184 -47 209 -132 12 -38 10
-53 -14 -141 -41 -153 -33 -240 27 -309 56 -64 127 -79 202 -43 43 21 69 58
56 78 -4 7 -31 11 -67 10 -72 -2 -101 14 -116 64 -9 32 -8 46 11 95 65 169 71
188 71 264 0 61 -5 85 -26 126 -34 69 -94 129 -157 159 -62 29 -175 32 -247 7z"/>
<path d="M2951 1208 c-59 -29 -80 -76 -54 -120 41 -71 172 -96 260 -50 47 25
63 47 63 89 0 33 -38 75 -83 92 -48 19 -137 13 -186 -11z"/>
<path d="M3287 1224 c-4 -4 -7 -227 -7 -496 l0 -488 140 0 140 0 -2 493 -3
492 -131 3 c-71 1 -133 -1 -137 -4z"/>
<path d="M4380 735 l0 -495 140 0 140 0 0 214 c0 221 6 262 43 304 30 32 81
30 104 -5 16 -24 18 -58 22 -270 l3 -243 134 0 134 0 0 254 c0 270 -7 335 -43
406 -35 69 -92 103 -178 108 -120 7 -196 -40 -254 -155 -26 -53 -53 -73 -41
-30 37 125 57 319 40 385 -6 21 -10 22 -125 22 l-119 0 0 -495z"/>
<path d="M5234 1215 c-78 -34 -95 -104 -39 -154 86 -75 244 -59 294 31 23 40
-5 93 -62 118 -50 23 -146 25 -193 5z"/>
<path d="M1235 996 c-44 -19 -88 -68 -120 -136 -31 -65 -53 -80 -39 -27 4 17
8 61 8 97 l1 65 -97 3 -98 3 0 -381 0 -380 135 0 135 0 0 203 c0 213 7 264 38
306 25 34 71 39 98 10 18 -19 19 -40 22 -270 l3 -249 140 0 139 0 0 223 c0
211 1 225 23 267 22 46 41 56 82 46 43 -11 50 -52 49 -303 l-1 -233 140 0 139
0 -4 278 c-6 307 -12 346 -70 416 -42 52 -98 76 -176 76 -104 0 -169 -47 -219
-158 -24 -54 -43 -61 -43 -16 0 31 -25 92 -48 117 -47 53 -166 74 -237 43z"/>
<path d="M2298 991 c-48 -11 -105 -28 -125 -38 l-38 -18 -3 -112 c-1 -62 0
-113 3 -113 3 0 27 11 53 24 77 39 179 66 249 66 55 0 67 -4 88 -25 14 -13 25
-34 25 -47 0 -23 -2 -23 -113 -23 -80 -1 -127 -6 -164 -18 -127 -44 -188 -131
-181 -257 5 -87 39 -141 113 -179 66 -34 179 -36 241 -4 51 27 109 91 130 143
9 22 20 40 25 40 5 0 9 -33 9 -72 0 -123 -5 -118 117 -118 l105 0 -4 253 c-5
279 -11 315 -71 403 -23 36 -48 57 -91 79 -54 27 -69 30 -170 32 -78 2 -137
-3 -198 -16z m252 -453 c0 -26 -55 -88 -94 -108 -51 -24 -83 -25 -108 -3 -39
35 -11 94 52 112 52 14 150 14 150 -1z"/>
<path d="M3876 994 c-124 -39 -207 -133 -235 -262 -33 -156 13 -329 111 -417
74 -66 141 -89 263 -89 106 1 151 12 232 60 l43 25 0 124 c0 69 -2 125 -4 125
-2 0 -34 -14 -72 -32 -91 -43 -207 -51 -278 -20 -81 37 -99 128 -36 191 61 61
202 63 329 5 29 -13 55 -24 57 -24 2 0 4 58 4 130 0 146 2 141 -90 176 -65 24
-259 29 -324 8z"/>
<path d="M5900 991 c-48 -26 -73 -56 -110 -129 -17 -34 -35 -60 -40 -57 -5 3
-6 15 -1 28 14 36 23 124 16 147 -6 19 -13 21 -103 18 l-97 -3 -3 -377 -2
-378 134 0 134 0 4 218 c3 207 4 219 28 267 24 47 27 50 65 50 62 0 65 -12 65
-292 l0 -243 140 0 140 0 0 213 c1 220 8 266 46 308 26 28 70 25 91 -8 16 -24
18 -58 21 -270 l3 -243 135 0 136 0 -4 289 -3 288 -35 69 c-31 60 -42 72 -90
97 -49 25 -63 28 -127 25 -100 -5 -145 -37 -193 -135 -19 -40 -38 -72 -42 -73
-4 0 -12 25 -18 56 -13 63 -56 119 -107 140 -47 20 -141 17 -183 -5z"/>
<path d="M7150 995 c-51 -23 -98 -72 -131 -137 -16 -32 -34 -58 -40 -58 -7 0
-8 7 -4 18 14 36 27 133 21 157 -7 26 -7 26 -104 23 l-97 -3 -3 -482 -2 -483
135 0 135 0 0 145 c0 142 7 169 30 125 15 -29 90 -69 142 -76 63 -9 144 17
196 62 84 71 127 205 119 364 -9 162 -57 267 -151 325 -43 26 -60 30 -130 33
-57 1 -92 -2 -116 -13z m72 -226 c44 -24 70 -160 49 -261 -14 -64 -53 -108
-98 -108 -42 0 -89 56 -103 125 -20 95 8 216 57 244 24 14 69 14 95 0z"/>
<path d="M2920 615 l0 -375 135 0 135 0 0 376 0 376 -32 -9 c-41 -10 -174 -11
-210 0 l-28 7 0 -375z"/>
<path d="M5190 616 l0 -376 140 0 140 0 0 376 0 376 -32 -9 c-18 -4 -67 -8
-108 -8 -41 0 -90 4 -107 8 l-33 9 0 -376z"/>
</g>
</svg>
